<?xml version="1.0" standalone="no"?>
<!DOCTYPE svg PUBLIC "-//W3C//DTD SVG 20010904//EN"
 "http://www.w3.org/TR/2001/REC-SVG-20010904/DTD/svg10.dtd">
<svg version="1.0" xmlns="http://www.w3.org/2000/svg"
 width="1200.000000pt" height="800.000000pt" viewBox="0 0 1200.000000 800.000000"
 preserveAspectRatio="xMidYMid meet">

<g transform="translate(0.000000,800.000000) scale(0.100000,-0.100000)"
fill="#000000" stroke="none">
<path d="M5865 7184 c-16 -2 -73 -9 -125 -14 -202 -23 -426 -79 -611 -154
-326 -131 -587 -303 -835 -551 -493 -492 -740 -1175 -673 -1861 43 -441 210
-854 494 -1219 127 -163 334 -359 508 -479 556 -385 1244 -528 1900 -396 103
21 295 73 332 89 11 5 58 24 105 42 105 41 280 130 391 200 273 170 560 451
731 715 258 397 378 802 378 1268 -1 621 -222 1166 -659 1618 -305 317 -656
524 -1116 661 -207 62 -627 103 -820 81z m450 -35 c205 -21 488 -96 696 -184
405 -173 789 -493 1034 -860 407 -610 501 -1302 275 -2015 -44 -141 -166 -383
-268 -536 -337 -503 -854 -861 -1452 -1003 -203 -48 -273 -55 -560 -56 -299 0
-366 7 -602 66 -170 42 -303 91 -478 176 -600 291 -1060 834 -1239 1463 -109
383 -116 798 -20 1175 139 547 448 996 924 1342 223 162 539 308 808 373 168
40 215 48 337 59 69 6 143 13 165 15 55 5 259 -3 380 -15z"/>
<path d="M3786 7010 c-24 -22 -48 -40 -54 -40 -7 0 -18 16 -26 35 -9 20 -22
35 -32 35 -15 0 -16 -9 -10 -79 l7 -79 -31 -22 c-36 -25 -60 -20 -60 13 0 34
-25 65 -40 50 -12 -11 -11 -31 6 -124 5 -31 2 -40 -29 -72 -19 -21 -39 -37
-45 -37 -13 0 -42 52 -42 75 0 23 -24 13 -28 -12 -2 -11 9 -46 24 -76 l26 -57
-27 -45 c-14 -26 -33 -49 -41 -52 -17 -6 -49 20 -75 61 -14 24 -19 27 -24 14
-6 -15 6 -48 41 -111 15 -26 14 -30 -11 -72 -14 -25 -32 -45 -41 -45 -8 0 -29
20 -46 45 -24 34 -34 42 -45 34 -21 -18 -15 -43 17 -84 17 -21 30 -45 30 -54
0 -9 -12 -44 -27 -78 -40 -91 -66 -94 -101 -12 -22 54 -45 62 -50 17 -2 -16
10 -42 37 -79 45 -59 51 -95 27 -154 -20 -48 -51 -47 -100 5 -21 22 -44 40
-52 40 -27 0 -3 -53 42 -96 49 -45 52 -61 30 -154 -17 -73 -35 -76 -91 -15
-44 47 -65 51 -65 14 0 -32 17 -55 56 -78 l36 -22 -4 -80 c-2 -57 -8 -83 -18
-89 -25 -16 -54 -7 -68 22 -14 30 -48 46 -64 30 -10 -10 18 -72 32 -72 4 0 21
-14 38 -31 34 -34 42 -81 22 -133 -13 -36 -39 -33 -89 10 -31 27 -45 34 -53
26 -19 -19 8 -59 62 -93 l51 -31 -3 -67 c-4 -79 -20 -89 -74 -42 -37 33 -53
38 -71 20 -18 -18 -5 -36 69 -90 66 -48 70 -53 64 -81 -3 -17 -6 -48 -6 -69 0
-50 -13 -50 -74 1 -54 45 -58 46 -76 25 -20 -24 -2 -52 53 -83 85 -48 102 -73
102 -145 0 -73 -12 -81 -70 -42 -26 18 -45 25 -61 21 -44 -11 -28 -40 50 -89
40 -26 79 -53 86 -61 6 -8 14 -40 16 -71 6 -64 1 -66 -80 -39 -34 12 -51 13
-58 6 -18 -18 8 -39 80 -63 37 -12 72 -26 78 -30 14 -12 37 -150 27 -160 -5
-5 -37 3 -72 17 -69 28 -88 23 -77 -20 4 -18 15 -28 34 -31 115 -24 148 -50
157 -122 l7 -53 -39 0 c-21 1 -49 7 -63 15 -27 16 -70 20 -70 7 0 -24 32 -44
90 -58 36 -8 75 -21 86 -29 43 -28 85 -155 52 -155 -7 0 -35 7 -62 15 -63 19
-82 19 -90 -2 -11 -27 15 -42 104 -58 47 -9 90 -22 96 -28 14 -15 25 -105 13
-113 -5 -2 -22 2 -39 11 -17 9 -41 15 -52 13 -43 -6 -28 -28 44 -64 40 -20 83
-45 95 -56 12 -12 39 -63 59 -114 21 -52 41 -94 45 -94 12 0 25 30 32 71 4 26
-2 52 -23 99 -21 48 -26 69 -20 91 9 31 40 78 65 99 19 15 21 80 2 80 -7 0
-24 -18 -37 -41 -44 -72 -50 -76 -77 -45 -16 19 -23 40 -23 68 0 36 6 46 50
89 38 37 50 56 50 78 0 46 -19 47 -53 5 -45 -54 -65 -74 -78 -74 -15 0 -39 64
-39 106 0 31 8 43 60 91 75 70 80 111 11 94 -17 -5 -27 -17 -33 -39 -6 -24
-14 -32 -31 -32 -33 0 -45 12 -62 59 l-15 43 77 80 c72 76 75 81 58 94 -30 22
-42 17 -75 -31 -43 -62 -65 -60 -85 7 -24 83 -22 90 50 139 47 32 65 50 65 66
0 44 -36 36 -100 -24 -38 -36 -54 -26 -64 38 -13 80 -4 105 47 130 61 31 87
58 87 91 0 15 -5 28 -10 28 -14 0 -59 -28 -92 -58 l-27 -25 -20 34 c-43 71
-27 105 82 175 42 26 78 77 64 90 -9 9 -97 -34 -103 -50 -12 -32 -43 -18 -54
26 -16 58 -5 75 81 128 76 47 91 72 57 93 -13 8 -24 4 -52 -21 -40 -35 -44
-36 -65 -23 -20 13 -9 98 15 116 11 7 44 26 74 42 49 25 79 49 80 63 0 3 -10
11 -21 18 -19 12 -24 11 -49 -13 -18 -17 -36 -25 -51 -23 -22 3 -24 7 -21 53
3 55 5 57 85 87 63 23 87 49 66 74 -15 18 -27 18 -63 -1 -60 -31 -71 -11 -36
67 25 58 36 66 101 78 54 10 82 32 77 60 -4 21 -42 24 -58 5 -33 -40 -75 -5
-67 57 7 55 31 76 104 91 104 21 126 57 34 57 -33 0 -63 5 -66 10 -10 16 13
75 38 98 13 12 47 26 77 32 56 11 98 39 86 59 -10 15 -33 14 -61 -5 -36 -23
-48 -9 -42 47 9 78 17 85 94 93 67 7 103 25 103 52 0 10 -9 12 -32 7 -18 -3
-35 -7 -37 -9 -8 -7 -41 18 -41 32 0 21 49 91 68 99 9 3 43 8 75 11 65 4 81
10 71 26 -4 6 -25 8 -55 4 -47 -6 -49 -6 -49 18 0 25 33 65 54 67 33 2 94 10
114 14 33 8 22 29 -19 36 -19 3 -40 9 -47 13 -20 12 -13 51 14 77 21 20 39 25
100 29 41 3 75 10 75 15 0 6 -20 14 -45 19 -25 5 -46 14 -46 19 0 16 39 75 54
80 8 3 46 9 85 13 78 7 97 19 57 34 -29 11 -33 31 -11 50 17 14 21 70 5 70 -6
0 -30 -18 -54 -40z"/>
<path d="M8226 7043 c-13 -13 -5 -51 14 -68 26 -23 25 -29 -5 -43 -43 -20 -28
-30 55 -37 72 -6 82 -10 105 -37 38 -45 33 -64 -21 -74 -66 -13 -54 -29 23
-32 78 -3 109 -15 128 -53 19 -35 -3 -69 -45 -69 -30 0 -48 -16 -34 -30 5 -4
34 -10 64 -13 64 -5 95 -18 111 -48 20 -38 5 -50 -51 -43 -41 5 -50 4 -50 -9
0 -11 16 -17 63 -22 89 -9 94 -12 128 -62 31 -44 31 -46 13 -64 -16 -15 -26
-17 -57 -10 -45 11 -54 1 -24 -28 16 -14 42 -23 85 -27 34 -4 67 -13 72 -19
16 -19 29 -112 17 -124 -6 -6 -21 -4 -42 6 -18 9 -41 13 -50 9 -16 -6 -16 -9
-3 -29 14 -20 35 -28 116 -43 45 -9 97 -92 77 -124 -3 -5 -31 -10 -61 -10 -58
0 -59 -1 -44 -30 7 -13 27 -21 67 -26 81 -10 115 -44 111 -111 -3 -43 -6 -48
-29 -51 -14 -2 -31 4 -39 12 -15 19 -46 21 -53 4 -12 -33 11 -55 71 -67 62
-12 79 -24 106 -78 33 -67 12 -105 -38 -68 -25 19 -50 19 -66 0 -19 -23 9 -48
79 -74 73 -26 83 -38 79 -93 -3 -38 -6 -43 -29 -46 -19 -2 -33 4 -47 23 -20
25 -22 26 -47 9 -21 -14 -23 -19 -13 -32 7 -8 24 -20 38 -26 62 -27 121 -70
126 -91 8 -31 1 -88 -11 -92 -9 -3 -38 14 -87 49 -15 10 -20 9 -32 -7 -9 -11
-14 -24 -13 -29 2 -5 38 -30 80 -55 42 -25 80 -54 83 -64 9 -27 -6 -98 -21
-104 -8 -2 -31 9 -52 25 -41 32 -80 46 -89 31 -9 -14 34 -68 69 -85 54 -27 97
-75 97 -107 0 -30 -27 -97 -39 -97 -4 0 -18 12 -32 26 -33 35 -79 58 -91 46
-5 -5 -8 -20 -6 -33 3 -22 14 -31 100 -84 29 -18 33 -26 36 -70 4 -69 -5 -115
-24 -115 -9 0 -36 18 -61 40 -51 45 -55 46 -73 25 -19 -23 -7 -40 59 -85 53
-36 61 -45 61 -73 0 -47 -19 -107 -36 -114 -17 -6 -61 30 -69 58 -11 34 -75
35 -75 2 0 -9 32 -47 70 -86 39 -40 70 -78 70 -87 -1 -8 -9 -31 -18 -50 -13
-28 -24 -36 -49 -38 -29 -3 -32 0 -39 32 -5 29 -11 36 -30 36 -13 0 -27 0 -31
1 -5 0 -12 -6 -18 -15 -7 -11 6 -29 59 -79 66 -62 67 -65 61 -103 -11 -62 -15
-73 -35 -84 -16 -8 -26 -1 -66 45 -26 31 -52 54 -58 52 -24 -8 -5 -72 34 -112
65 -69 72 -102 34 -160 -21 -31 -37 -23 -74 36 -36 58 -60 65 -60 15 0 -21 6
-36 15 -40 22 -8 75 -97 75 -126 0 -14 -11 -45 -25 -69 -27 -47 -31 -90 -14
-140 18 -52 22 -47 74 85 35 88 45 98 132 141 40 19 77 41 84 49 18 21 -32 28
-76 10 -21 -9 -40 -16 -42 -16 -12 0 5 112 18 121 8 5 39 13 69 19 93 18 113
25 124 42 8 13 7 21 -2 30 -10 10 -26 9 -79 -5 -37 -10 -70 -14 -73 -10 -16
18 3 83 36 121 27 33 43 41 94 52 71 15 107 39 97 64 -6 15 -9 15 -44 0 -21
-10 -58 -19 -82 -22 l-43 -4 7 43 c4 24 11 53 15 65 9 23 87 64 123 64 40 0
62 26 58 68 -1 17 -18 15 -86 -13 -33 -14 -63 -21 -67 -17 -11 11 13 134 29
153 7 9 32 22 56 28 48 15 117 51 117 62 0 18 -44 19 -85 4 -73 -28 -81 -16
-59 91 2 13 36 43 89 78 47 31 85 61 85 67 0 5 -11 14 -24 20 -19 9 -30 6 -65
-16 -24 -14 -50 -25 -59 -23 -36 7 -20 128 22 166 11 11 44 33 71 49 53 31 67
60 40 83 -13 10 -23 6 -68 -29 -30 -22 -59 -41 -65 -41 -8 0 -12 24 -12 73 l0
72 68 50 c43 32 67 57 67 70 0 31 -33 30 -75 -4 -56 -45 -70 -41 -72 19 -1 28
-2 57 -2 66 -1 9 24 35 54 58 39 30 56 50 58 69 4 37 -12 34 -59 -8 -41 -36
-73 -45 -82 -21 -3 7 -8 34 -12 59 -7 46 -7 47 49 102 56 56 72 95 39 95 -25
0 -39 -12 -47 -37 -4 -13 -19 -26 -33 -29 -40 -10 -57 16 -61 94 -4 72 -2 77
61 123 18 14 27 30 27 48 0 44 -10 44 -61 -4 -27 -25 -55 -45 -63 -45 -16 0
-36 76 -36 139 0 32 7 44 45 80 30 28 45 50 45 67 0 34 -16 30 -62 -16 -22
-22 -49 -40 -59 -40 -24 0 -49 39 -56 88 -4 32 0 45 32 86 49 64 60 95 41 114
-13 13 -17 11 -35 -19 -12 -19 -21 -39 -21 -46 0 -16 -37 -36 -51 -28 -5 4
-23 36 -40 71 -33 70 -32 87 7 134 17 19 24 39 22 56 -5 41 -20 38 -53 -11
-17 -25 -37 -44 -45 -43 -18 4 -60 65 -60 89 0 10 11 35 25 55 23 34 34 84 18
84 -3 0 -21 -18 -40 -40 -19 -22 -41 -40 -49 -40 -16 0 -51 51 -61 89 -4 15 4
44 23 82 26 55 27 61 11 76 -15 15 -17 15 -23 -3 -28 -86 -39 -92 -85 -41 -36
39 -43 64 -30 101 16 41 14 106 -3 106 -8 0 -18 -10 -22 -22 -4 -13 -6 -23 -4
-23 2 0 -2 -10 -9 -22 -15 -29 -32 -29 -63 0 -24 22 -25 28 -20 100 4 65 2 77
-11 77 -9 0 -21 -15 -28 -35 -15 -41 -34 -44 -61 -10 -22 28 -72 58 -82 48z"/>
<path d="M5025 2170 c-42 -10 -86 -34 -112 -62 -25 -26 -68 -117 -59 -125 5
-6 26 40 26 56 0 15 43 63 83 92 34 25 49 29 104 29 72 0 143 -31 143 -62 0
-10 -4 -18 -8 -18 -13 0 -42 -91 -42 -131 0 -19 12 -59 26 -87 31 -61 26 -72
-42 -98 -97 -37 -203 5 -256 101 -31 57 -38 44 -8 -14 52 -104 186 -141 299
-84 43 21 57 24 70 15 37 -27 87 -42 135 -42 49 0 127 27 140 48 4 7 27 0 62
-19 70 -36 144 -40 201 -8 21 11 42 24 46 29 5 4 34 -5 64 -21 83 -44 158 -39
236 14 26 17 30 18 45 3 66 -59 207 -60 273 0 15 13 20 12 54 -10 38 -26 94
-42 117 -33 7 3 1 6 -13 6 -29 1 -84 23 -111 44 -19 15 -24 37 -9 37 5 0 17
20 27 45 22 59 15 152 -15 194 -12 16 -21 32 -21 35 0 3 20 17 43 31 61 35
143 35 203 0 l43 -25 -24 -49 c-14 -27 -25 -60 -25 -72 1 -15 8 -4 19 29 10
29 21 56 25 59 14 15 42 -15 58 -63 12 -35 17 -42 18 -24 0 14 -9 42 -20 63
-11 20 -20 43 -20 50 0 15 51 47 94 58 27 8 26 8 -9 4 -21 -2 -52 -14 -68 -26
l-29 -21 -54 27 c-76 38 -142 39 -216 1 l-57 -29 -25 21 c-36 28 -112 44 -156
33 -32 -8 -29 -9 29 -10 45 -1 74 -7 102 -23 45 -25 46 -30 19 -83 -11 -22
-20 -51 -19 -65 1 -23 2 -23 8 5 9 37 39 95 49 95 4 0 17 -15 27 -32 40 -66
18 -228 -30 -228 -12 0 -38 56 -48 105 -3 14 -5 12 -6 -8 0 -15 8 -47 20 -72
11 -24 18 -49 14 -55 -14 -23 -86 -50 -132 -50 -43 0 -109 24 -137 50 -5 5 1
24 14 45 34 55 38 140 9 201 -12 27 -23 52 -23 56 -1 4 14 19 33 33 19 14 30
25 24 25 -6 0 -22 -9 -36 -20 -30 -24 -50 -25 -67 -5 -7 8 -35 22 -63 30 -60
18 -70 19 -62 5 3 -5 17 -10 31 -10 31 0 104 -36 104 -52 0 -6 -10 -32 -22
-57 -29 -60 -29 -131 1 -194 28 -56 22 -67 -45 -93 -55 -21 -131 -14 -180 16
-31 20 -47 50 -26 50 10 0 44 81 38 88 -3 2 -13 -17 -25 -42 -11 -25 -26 -46
-34 -46 -8 0 -25 24 -37 56 -21 50 -22 61 -12 105 13 55 39 102 53 93 17 -10
43 -69 50 -114 l6 -45 2 41 c1 26 -8 58 -24 90 l-25 49 27 23 c16 12 45 25 66
28 20 4 37 11 37 15 0 14 -49 0 -102 -29 -43 -23 -50 -24 -65 -10 -59 50 -163
55 -242 13 -46 -26 -53 -27 -68 -13 -10 9 -29 19 -43 22 -19 5 -16 1 12 -16
43 -26 45 -35 18 -80 -11 -18 -19 -49 -19 -68 l1 -35 7 35 c10 47 40 102 51
95 17 -11 42 -66 51 -114 l8 -46 -4 54 c-2 29 -13 69 -25 88 -11 19 -20 38
-20 42 0 18 89 51 140 51 51 0 140 -31 140 -49 0 -4 -10 -27 -22 -52 -31 -62
-31 -150 0 -203 13 -21 21 -45 18 -53 -9 -22 -87 -53 -135 -53 -48 0 -129 33
-138 57 -3 7 2 21 10 31 8 9 18 31 22 47 5 24 2 22 -14 -12 -11 -24 -26 -43
-34 -43 -8 0 -24 21 -35 48 -13 27 -21 39 -22 27 0 -11 9 -35 21 -54 26 -42
20 -57 -33 -81 -70 -32 -152 -23 -212 22 -18 15 -18 16 9 72 24 48 27 65 22
112 -3 30 -15 71 -26 90 -12 20 -19 40 -15 45 14 24 86 49 141 50 39 0 52 3
38 8 -32 13 -96 3 -151 -24 l-51 -25 -44 24 c-50 27 -109 37 -154 26z m236
-134 c24 -53 24 -103 -1 -160 -22 -51 -33 -56 -54 -23 -40 62 -40 152 0 215
18 28 31 21 55 -32z m932 1 c22 -55 21 -111 -3 -165 -23 -50 -38 -50 -62 -1
-23 43 -23 128 -1 174 22 47 44 44 66 -8z"/>
<path d="M6930 2169 c0 -5 15 -9 34 -9 46 0 124 -54 153 -105 26 -47 31 -128
9 -178 -31 -75 -113 -127 -197 -127 -39 0 -117 33 -124 52 -3 7 4 31 15 53 11
21 20 53 19 70 l-1 30 -7 -30 c-10 -39 -39 -95 -50 -95 -14 0 -28 22 -44 70
-12 33 -16 39 -16 20 -1 -14 11 -45 24 -69 15 -26 22 -48 17 -53 -5 -5 -36
-20 -68 -33 -32 -14 -50 -25 -38 -25 11 0 43 12 72 26 l52 26 52 -26 c125 -62
266 -9 308 118 31 96 -10 213 -94 260 -44 25 -116 41 -116 25z"/>
<path d="M4852 1940 c0 -14 2 -19 5 -12 2 6 2 18 0 25 -3 6 -5 1 -5 -13z"/>
<path d="M4678 1117 c-89 -25 -173 -110 -201 -202 -6 -22 -12 -92 -12 -155 0
-106 2 -120 28 -172 53 -108 157 -171 282 -172 122 0 207 48 256 144 16 30 29
60 29 66 0 9 -119 49 -125 42 -1 -2 -10 -19 -19 -39 -36 -77 -111 -115 -190
-95 -37 9 -87 55 -107 101 -28 60 -27 223 2 282 50 103 174 132 255 61 19 -17
37 -41 40 -55 7 -26 17 -26 106 1 l37 11 -20 45 c-27 59 -53 86 -114 118 -60
30 -174 39 -247 19z"/>
<path d="M8760 1112 c-42 -12 -68 -29 -111 -71 -74 -74 -100 -140 -100 -262
-1 -156 45 -253 150 -316 129 -77 322 -60 423 39 143 138 128 446 -27 564 -78
59 -223 79 -335 46z m182 -102 c53 -15 92 -52 118 -112 19 -44 22 -65 18 -145
-3 -83 -7 -97 -33 -134 -41 -58 -75 -80 -128 -86 -69 -8 -114 4 -157 43 -51
46 -75 110 -75 199 0 120 46 200 131 230 47 17 77 18 126 5z"/>
<path d="M2252 779 c-74 -191 -129 -345 -124 -348 6 -3 37 -4 70 -3 l60 4 29
76 29 77 143 0 144 0 29 -77 30 -78 73 0 73 0 -138 343 -138 342 -73 3 -74 3
-133 -342z m234 118 c12 -34 33 -92 47 -129 l26 -68 -99 0 c-55 0 -100 1 -100
3 0 6 46 138 70 200 12 31 24 57 28 57 4 0 17 -28 28 -63z"/>
<path d="M2890 775 l0 -345 70 0 70 0 0 145 0 145 128 2 c70 1 135 2 145 1 14
0 17 10 17 59 l0 58 -145 0 -145 0 0 85 0 85 170 0 170 0 0 55 0 55 -240 0
-239 0 -1 -345z"/>
<path d="M3500 776 l0 -346 65 0 65 0 0 146 0 146 62 -4 c56 -4 64 -8 94 -42
17 -20 63 -84 100 -141 l69 -105 83 0 82 0 -51 82 c-79 128 -114 171 -164 202
l-29 19 41 12 c102 30 147 87 147 185 0 75 -31 133 -87 162 -39 21 -57 23
-259 26 l-218 4 0 -346z m401 205 c33 -33 37 -67 14 -111 -20 -38 -64 -50
-187 -50 l-98 0 0 95 0 95 121 0 c120 0 121 0 150 -29z"/>
<path d="M4200 775 l0 -345 70 0 70 0 0 345 0 345 -70 0 -70 0 0 -345z"/>
<path d="M5261 783 c-73 -186 -135 -342 -137 -348 -3 -6 23 -9 69 -7 l74 3 23
65 c12 36 29 72 37 80 11 11 45 14 149 14 119 0 135 -2 140 -17 3 -10 16 -45
29 -78 l23 -60 71 -3 c39 -2 71 0 71 3 0 4 -61 159 -136 346 l-136 339 -72 0
-73 0 -132 -337z m256 48 c24 -67 43 -124 41 -126 -3 -3 -168 -8 -190 -6 -3 1
14 54 38 119 24 64 44 123 44 130 0 40 27 -8 67 -117z"/>
<path d="M5900 775 l0 -345 66 0 65 0 -3 225 c-2 124 -1 225 2 225 3 0 67
-102 144 -225 l139 -225 68 0 69 0 0 345 0 345 -60 0 -60 0 0 -230 c0 -126 -3
-230 -7 -230 -5 1 -71 104 -148 230 l-140 229 -67 1 -68 0 0 -345z"/>
<path d="M6882 853 c5 -278 7 -291 52 -357 10 -16 44 -40 75 -54 47 -22 71
-26 151 -26 82 0 103 3 151 26 59 27 89 60 108 118 6 20 13 148 17 298 l6 262
-71 0 -71 0 0 -237 c0 -136 -5 -254 -11 -276 -15 -56 -57 -79 -137 -75 -55 4
-67 8 -95 36 l-32 32 -3 260 -3 260 -71 0 -70 0 4 -267z"/>
<path d="M7590 775 l0 -345 65 0 66 0 -3 225 c-2 124 0 224 4 223 6 -3 122
-185 257 -405 l26 -43 67 0 68 0 0 345 0 345 -60 0 -60 0 0 -237 c-1 -190 -3
-235 -13 -221 -7 10 -73 117 -147 238 l-135 220 -67 0 -68 0 0 -345z"/>
<path d="M8290 775 l0 -345 70 0 70 0 0 345 0 345 -70 0 -69 0 -1 -345z"/>
<path d="M9340 775 l0 -345 65 0 66 0 -3 225 c-2 124 0 225 4 225 4 0 16 -15
25 -33 10 -18 72 -120 138 -225 l120 -192 67 0 68 0 0 345 0 345 -60 0 -60 0
0 -237 c-1 -190 -3 -235 -13 -221 -7 9 -73 116 -147 237 l-135 221 -67 0 -68
0 0 -345z"/>
</g>
</svg>
