<?xml version="1.0" standalone="no"?>
<!DOCTYPE svg PUBLIC "-//W3C//DTD SVG 20010904//EN"
 "http://www.w3.org/TR/2001/REC-SVG-20010904/DTD/svg10.dtd">
<svg version="1.0" xmlns="http://www.w3.org/2000/svg"
 width="250.000000pt" height="200.000000pt" viewBox="0 0 250.000000 200.000000"
 preserveAspectRatio="xMidYMid meet">

<g transform="translate(0.000000,200.000000) scale(0.100000,-0.100000)"
fill="#000000" stroke="none">
<path d="M1329 1831 c-33 -32 -39 -45 -38 -77 l2 -39 7 44 c5 35 16 52 45 78
21 18 35 33 30 33 -4 0 -25 -17 -46 -39z"/>
<path d="M1013 1826 c22 -22 37 -47 40 -68 l4 -33 1 31 c2 34 -25 76 -60 95
-12 6 -5 -4 15 -25z"/>
<path d="M1138 1853 c7 -3 16 -2 19 1 4 3 -2 6 -13 5 -11 0 -14 -3 -6 -6z"/>
<path d="M1234 1800 c1 -21 6 -43 10 -47 5 -4 6 -3 2 4 -3 6 -2 15 4 18 8 5 8
11 0 20 -7 8 -9 19 -6 24 4 5 2 12 -3 15 -4 3 -8 -12 -7 -34z"/>
<path d="M1108 1813 c7 -3 16 -2 19 1 4 3 -2 6 -13 5 -11 0 -14 -3 -6 -6z"/>
<path d="M1575 1788 c-5 -13 -19 -24 -30 -26 -11 -2 -27 -10 -35 -17 -8 -7
-26 -15 -40 -18 l-25 -4 26 -2 c15 0 32 6 39 14 7 8 20 15 29 15 26 0 54 24
50 44 -3 14 -6 13 -14 -6z"/>
<path d="M760 1785 c0 -8 9 -19 21 -25 29 -16 29 -9 2 17 -16 16 -23 18 -23 8z"/>
<path d="M848 1728 c6 -6 18 -8 28 -6 14 3 12 5 -9 10 -19 3 -25 2 -19 -4z"/>
<path d="M1201 1644 c0 -11 3 -14 6 -6 3 7 2 16 -1 19 -3 4 -6 -2 -5 -13z"/>
<path d="M1090 1621 c0 -7 -4 -9 -10 -6 -5 3 -10 -2 -10 -12 0 -16 1 -16 17 0
9 9 14 20 10 23 -4 4 -7 2 -7 -5z"/>
<path d="M1540 1610 c-13 -13 -19 -32 -19 -52 l2 -33 4 30 c9 61 55 83 93 45
11 -11 20 -16 20 -11 0 14 -41 41 -62 41 -10 0 -27 -9 -38 -20z"/>
<path d="M722 1613 c-7 -2 -17 -14 -23 -26 -11 -20 -10 -20 17 3 16 14 31 26
33 28 7 4 -14 1 -27 -5z"/>
<path d="M778 1594 c14 -10 23 -27 23 -47 2 -32 2 -32 6 -4 5 29 -19 67 -41
67 -6 0 0 -7 12 -16z"/>
<path d="M1660 1570 c-8 -5 -10 -10 -5 -10 6 0 17 5 25 10 8 5 11 10 5 10 -5
0 -17 -5 -25 -10z"/>
<path d="M935 1560 c3 -5 8 -10 11 -10 2 0 4 5 4 10 0 6 -5 10 -11 10 -5 0 -7
-4 -4 -10z"/>
<path d="M1416 1542 l-19 -27 24 22 c12 12 21 24 18 27 -2 2 -13 -8 -23 -22z"/>
<path d="M1708 1560 c18 -21 15 -51 -10 -77 -12 -13 -17 -23 -11 -23 15 0 43
45 43 68 0 11 -8 26 -17 33 -15 11 -16 11 -5 -1z"/>
<path d="M612 1548 c-20 -20 -14 -55 14 -85 l26 -28 -21 32 c-25 38 -26 51 -4
75 18 20 4 25 -15 6z"/>
<path d="M650 1556 c0 -2 9 -6 20 -9 11 -3 18 -1 14 4 -5 9 -34 13 -34 5z"/>
<path d="M1200 1533 c0 -10 39 -19 55 -13 16 6 12 8 -17 12 -21 2 -38 3 -38 1z"/>
<path d="M1099 1517 c-9 -7 -14 -18 -12 -24 7 -19 21 -16 19 4 -1 21 31 30 48
13 8 -9 5 -16 -13 -31 -13 -10 -20 -19 -15 -19 4 0 15 7 24 15 15 14 18 14 30
0 11 -13 10 -15 -2 -10 -9 4 -15 0 -15 -9 0 -10 15 -15 49 -18 26 -1 48 -2 48
-1 0 2 -18 15 -40 29 -23 15 -40 35 -40 45 0 15 -7 19 -32 19 -18 0 -40 -6
-49 -13z"/>
<path d="M1280 1516 c0 -2 8 -10 18 -17 15 -13 16 -12 3 4 -13 16 -21 21 -21
13z"/>
<path d="M1488 1509 c-25 -14 -22 -55 4 -73 12 -9 27 -16 33 -16 5 1 -2 8 -17
16 -34 18 -38 59 -8 69 11 3 25 3 31 -1 8 -4 9 -3 5 4 -9 15 -25 15 -48 1z"/>
<path d="M795 1499 c-4 -5 5 -9 20 -9 31 0 43 -25 25 -54 -12 -19 -12 -20 3
-7 28 22 21 58 -13 69 -18 7 -32 7 -35 1z"/>
<path d="M1031 1492 c-9 -17 12 -62 24 -50 3 3 -1 11 -10 18 -11 9 -12 17 -4
31 5 10 7 19 5 19 -3 0 -10 -8 -15 -18z"/>
<path d="M967 1473 c-9 -9 -9 -43 1 -43 4 0 7 11 7 25 0 14 0 25 -1 25 0 0 -4
-3 -7 -7z"/>
<path d="M1348 1453 c5 -21 7 -23 10 -9 2 10 0 22 -6 28 -6 6 -7 0 -4 -19z"/>
<path d="M1088 1443 c7 -3 16 -2 19 1 4 3 -2 6 -13 5 -11 0 -14 -3 -6 -6z"/>
<path d="M1661 1404 c0 -11 3 -14 6 -6 3 7 2 16 -1 19 -3 4 -6 -2 -5 -13z"/>
<path d="M774 1394 c-18 -14 -18 -15 4 -4 12 6 22 13 22 15 0 8 -5 6 -26 -11z"/>
<path d="M660 1383 c0 -6 12 -25 26 -42 21 -25 23 -32 11 -37 -9 -3 -18 -13
-22 -22 -5 -13 -3 -14 6 -5 6 6 17 9 24 7 17 -7 12 31 -7 53 -8 10 -20 27 -26
38 -6 11 -12 15 -12 8z"/>
<path d="M1641 1357 c-13 -21 -12 -21 5 -5 10 10 16 20 13 22 -3 3 -11 -5 -18
-17z"/>
<path d="M1527 1347 c-2 -6 14 -26 35 -45 42 -38 51 -61 15 -38 -12 9 -54 23
-92 33 -98 24 -502 24 -619 0 -44 -9 -84 -21 -88 -25 -10 -10 1 -44 12 -37 5
3 6 -5 3 -17 -3 -16 -2 -19 5 -10 7 11 11 11 19 0 11 -14 12 -18 17 -84 2 -23
12 -53 21 -68 16 -24 14 -31 -7 -27 -5 0 -8 -11 -9 -26 l-1 -28 -9 25 c-6 18
-8 7 -6 -39 2 -63 1 -64 -31 -81 -18 -10 -29 -20 -25 -22 4 -3 3 -3 -4 -2 -7
2 -52 -22 -100 -52 -48 -31 -101 -58 -116 -61 l-28 -6 33 -28 c36 -30 61 -35
105 -18 42 16 103 60 97 71 -3 5 -11 4 -19 -2 -8 -7 -19 -9 -24 -6 -6 4 -15
-3 -21 -14 -12 -23 -30 -27 -30 -7 0 17 44 42 58 33 5 -3 15 1 22 9 10 12 10
15 -3 15 -8 0 -18 6 -20 13 -3 6 -6 3 -6 -8 -1 -16 -3 -17 -10 -6 -10 16 16
44 31 35 5 -3 8 -1 8 5 0 6 7 8 15 5 22 -9 6 -27 -19 -20 -20 5 -20 5 -2 -9
13 -10 22 -11 26 -5 4 7 12 5 21 -6 12 -16 12 -17 -3 -11 -19 7 -34 -8 -18
-18 6 -3 22 3 36 14 15 12 41 21 60 21 34 0 41 -8 26 -25 -5 -6 -3 -31 5 -57
14 -46 16 -48 51 -47 34 0 35 1 15 11 -26 13 -29 30 -9 47 11 9 27 4 74 -24
56 -33 66 -35 144 -35 77 0 88 3 134 31 27 17 52 36 55 41 7 11 49 -7 60 -25
8 -12 45 7 53 28 3 9 1 26 -5 37 -6 11 -8 22 -5 26 3 3 6 0 6 -8 0 -10 3 -10
14 -1 18 15 41 4 134 -63 85 -59 130 -67 179 -30 l36 27 -45 17 c-24 9 -71 35
-104 57 -32 22 -81 52 -107 68 -33 19 -46 32 -43 44 3 9 10 57 16 106 19 168
19 168 46 162 13 -2 24 -1 24 4 0 4 9 11 21 14 16 5 19 12 15 30 -3 13 -3 31
0 40 6 14 9 14 30 0 13 -8 24 -13 24 -10 0 7 -62 45 -74 45 -4 0 -5 -7 -2 -16
4 -10 1 -14 -6 -11 -7 2 -13 15 -14 28 -2 47 -4 48 -39 47 -19 -1 -36 -6 -38
-11z m-361 -182 c1 -71 -2 -148 -6 -170 -4 -22 -8 -32 -9 -23 -1 17 -37 35
-48 24 -3 -3 2 -17 11 -30 9 -14 16 -28 16 -31 0 -11 -38 -4 -50 10 -20 24
-52 19 -48 -7 2 -11 -3 -23 -10 -25 -8 -3 -11 4 -10 19 3 18 -2 23 -22 24 -50
1 -60 4 -60 18 0 8 -7 16 -15 20 -9 3 -15 19 -15 41 0 19 -4 35 -10 35 -5 0
-10 6 -10 14 0 8 -7 17 -16 20 -9 4 -14 9 -11 13 4 3 13 0 21 -6 27 -22 28 8
1 33 -19 17 -25 32 -23 56 1 17 6 34 10 36 5 3 6 9 3 14 -3 5 7 12 22 16 15 3
41 10 56 15 16 4 47 6 70 3 23 -3 53 -1 67 5 14 6 39 9 55 8 l30 -2 1 -130z
m195 77 c8 -10 18 -26 22 -36 9 -22 33 -15 30 8 -1 12 4 15 14 12 9 -4 22 -1
30 5 20 17 24 7 14 -29 -6 -18 -8 -43 -5 -57 l4 -25 -125 0 -125 0 0 48 c0 26
-5 53 -12 60 -6 6 -9 14 -6 17 3 3 12 -1 21 -9 8 -8 23 -12 35 -9 17 4 20 1
15 -16 -4 -17 -1 -21 17 -21 17 0 21 4 17 20 -3 13 0 20 9 20 8 0 14 7 14 15
0 20 12 19 31 -3z m97 -333 c-2 -6 7 -15 20 -20 15 -6 21 -5 17 1 -3 6 -1 10
4 10 6 0 11 -7 11 -16 0 -9 6 -14 13 -11 6 2 27 -6 45 -18 26 -18 30 -24 17
-29 -9 -3 -14 -2 -11 3 3 5 -2 12 -11 15 -10 4 -14 4 -10 0 4 -5 -3 -14 -15
-20 -21 -12 -22 -13 -3 -14 34 -1 65 -4 65 -7 0 -1 -10 -7 -21 -14 -15 -8 -19
-8 -15 0 5 7 -2 11 -17 11 -14 0 -30 7 -37 16 -8 8 -9 14 -4 13 20 -3 34 2 34
12 0 6 -7 8 -16 5 -8 -3 -12 -2 -9 3 7 12 -31 24 -46 15 -7 -4 -9 -3 -6 3 4 6
0 14 -9 17 -25 10 -26 2 -4 -22 13 -14 26 -19 38 -15 15 6 15 5 3 -10 -13 -17
-37 -24 -27 -9 2 4 -4 13 -14 20 -14 9 -21 8 -30 -3 -7 -8 -22 -15 -34 -15
-12 0 -28 -6 -35 -12 -10 -11 -11 -10 -6 5 4 9 13 17 21 17 8 0 11 6 7 16 -5
14 -3 14 15 3 22 -14 32 -10 36 13 5 25 18 48 27 48 5 0 8 -5 7 -11z m-552 -6
c-15 -4 -16 -7 -5 -14 10 -7 6 -8 -12 -3 -15 3 -30 1 -33 -5 -9 -14 -26 -14
-26 0 0 5 5 7 10 4 6 -3 10 0 10 8 0 9 12 14 38 14 20 0 28 -2 18 -4z m52 -31
c2 -7 -2 -10 -12 -6 -9 3 -16 11 -16 16 0 13 23 5 28 -10z m-36 -17 c18 5 20
4 8 -4 -12 -8 -8 -11 17 -11 17 0 34 -4 37 -9 3 -4 -16 -4 -42 1 -26 6 -53 10
-59 11 -7 0 -13 10 -13 21 1 20 1 20 15 3 9 -13 20 -17 37 -12z m-108 0 c3 -8
15 -15 26 -15 28 0 25 -17 -5 -22 -17 -4 -25 -1 -25 8 0 8 -4 14 -8 14 -5 0
-9 7 -9 15 0 8 4 15 8 15 4 0 9 -7 13 -15z m821 -35 c3 -5 2 -10 -4 -10 -5 0
-13 5 -16 10 -3 6 -2 10 4 10 5 0 13 -4 16 -10z m18 -36 c-5 -12 -18 -19 -35
-19 -20 -1 -24 2 -17 12 6 6 16 10 23 7 8 -3 16 3 20 12 4 9 9 15 11 12 3 -3
2 -14 -2 -24z m-974 -10 c-6 -8 -18 -14 -25 -14 -8 0 -11 -6 -8 -15 4 -8 1
-21 -5 -29 -6 -7 -9 -15 -6 -17 2 -3 -5 -5 -15 -5 -11 0 -20 4 -20 8 0 4 7 8
16 8 8 0 12 5 9 10 -3 6 0 10 7 11 10 0 10 2 -1 6 -9 4 -5 13 15 32 29 28 55
31 33 5z m1041 -16 c0 -5 -2 -8 -4 -8 -2 0 -13 -3 -23 -7 -15 -6 -16 -5 -5 9
9 11 10 18 2 23 -6 4 -9 3 -8 -2 1 -4 -3 -18 -10 -29 -6 -12 -8 -24 -5 -28 3
-3 4 -6 1 -6 -2 0 -15 12 -29 27 -20 22 -21 25 -5 19 13 -4 23 0 33 14 12 16
17 18 33 7 11 -6 20 -15 20 -19z m-1115 -18 c3 -5 1 -10 -4 -10 -6 0 -11 5
-11 10 0 6 2 10 4 10 3 0 8 -4 11 -10z m1155 -5 c7 -8 17 -12 24 -9 6 3 0 -4
-13 -15 -25 -22 -46 -27 -55 -12 -3 5 0 9 7 8 6 0 21 1 32 2 19 1 18 3 -5 21
-14 11 -20 20 -14 20 6 0 17 -7 24 -15z m-30 -11 c0 -2 -7 -4 -15 -4 -8 0 -15
4 -15 10 0 5 7 7 15 4 8 -4 15 -8 15 -10z m-1150 2 c0 -11 -19 -15 -25 -6 -3
5 1 10 9 10 9 0 16 -2 16 -4z m338 -31 c-3 -3 -9 2 -12 12 -6 14 -5 15 5 6 7
-7 10 -15 7 -18z m167 -3 c-3 -3 -11 0 -18 7 -9 10 -8 11 6 5 10 -3 15 -9 12
-12z"/>
<path d="M950 1014 c0 -8 5 -12 10 -9 6 4 8 11 5 16 -9 14 -15 11 -15 -7z"/>
<path d="M985 1020 c-3 -5 -1 -10 4 -10 6 0 11 5 11 10 0 6 -2 10 -4 10 -3 0
-8 -4 -11 -10z"/>
<path d="M1020 1009 c0 -5 5 -7 10 -4 6 3 10 8 10 11 0 2 -4 4 -10 4 -5 0 -10
-5 -10 -11z"/>
<path d="M1010 979 c0 -5 5 -7 10 -4 6 3 10 8 10 11 0 2 -4 4 -10 4 -5 0 -10
-5 -10 -11z"/>
<path d="M1238 1163 c7 -3 16 -2 19 1 4 3 -2 6 -13 5 -11 0 -14 -3 -6 -6z"/>
<path d="M628 1233 c-16 -20 -28 -46 -27 -57 1 -15 4 -11 10 11 13 43 22 47
49 18 13 -14 28 -25 33 -25 5 0 -2 10 -17 21 -21 17 -26 27 -22 45 8 31 6 30
-26 -13z"/>
<path d="M726 1235 c-3 -9 1 -18 10 -22 9 -3 13 -12 9 -22 -5 -12 -3 -13 5 -5
12 12 4 64 -10 64 -4 0 -11 -7 -14 -15z"/>
<path d="M1700 1242 c0 -4 10 -13 23 -21 22 -14 22 -14 3 8 -20 22 -26 25 -26
13z"/>
<path d="M1660 1199 c-19 -11 -28 -19 -19 -19 9 0 27 9 40 20 29 23 25 23 -21
-1z"/>
<path d="M801 1164 c0 -11 3 -14 6 -6 3 7 2 16 -1 19 -3 4 -6 -2 -5 -13z"/>
<path d="M1700 1101 c-15 -28 -13 -38 15 -79 14 -20 25 -33 25 -28 0 4 -10 22
-22 38 -18 26 -20 35 -11 59 13 33 9 38 -7 10z"/>
<path d="M748 1093 c6 -2 18 -2 25 0 6 3 1 5 -13 5 -14 0 -19 -2 -12 -5z"/>
<path d="M651 1070 c-1 -8 -10 -26 -21 -40 -11 -14 -20 -29 -20 -35 0 -5 12 7
26 28 14 21 23 43 20 50 -3 8 -5 7 -5 -3z"/>
<path d="M780 905 c-8 -9 -8 -15 -2 -15 12 0 26 19 19 26 -2 2 -10 -2 -17 -11z"/>
<path d="M723 883 c9 -2 23 -2 30 0 6 3 -1 5 -18 5 -16 0 -22 -2 -12 -5z"/>
<path d="M980 706 c0 -3 9 -10 20 -16 11 -6 20 -8 20 -6 0 3 -9 10 -20 16 -11
6 -20 8 -20 6z"/>
<path d="M1436 703 c-4 -5 -22 -13 -39 -20 l-32 -11 36 -1 c25 -1 39 4 43 15
7 19 3 28 -8 17z"/>
<path d="M1655 550 c-4 -6 -3 -16 3 -22 6 -6 12 -6 17 2 4 6 3 16 -3 22 -6 6
-12 6 -17 -2z"/>
<path d="M2045 550 c-7 -12 2 -30 16 -30 12 0 12 27 0 35 -5 3 -12 1 -16 -5z"/>
<path d="M450 542 c-8 -2 -27 -16 -42 -30 l-28 -26 0 27 c0 21 -5 27 -20 27
-19 0 -21 -5 -18 -77 3 -65 6 -78 21 -81 14 -3 17 4 17 35 l1 38 32 -38 c33
-38 77 -54 58 -19 -5 9 -22 30 -37 45 l-26 29 33 34 c33 34 36 45 9 36z"/>
<path d="M172 474 c5 -73 20 -94 68 -94 48 0 63 21 68 94 4 61 3 66 -16 66
-19 0 -21 -7 -24 -62 -3 -60 -4 -63 -28 -63 -24 0 -25 3 -28 63 -3 55 -5 62
-24 62 -19 0 -20 -5 -16 -66z"/>
<path d="M533 533 c-7 -2 -13 -18 -13 -34 0 -25 6 -33 35 -45 46 -19 47 -44 1
-44 -38 0 -55 -14 -30 -24 33 -13 73 -6 87 15 21 29 11 53 -30 73 -39 19 -39
41 0 41 16 -1 27 5 27 12 0 13 -51 17 -77 6z"/>
<path d="M660 460 c0 -64 3 -80 15 -80 10 0 15 11 15 35 0 33 2 35 35 35 33 0
35 -2 35 -35 0 -24 5 -35 15 -35 12 0 15 16 15 80 0 64 -3 80 -15 80 -10 0
-15 -10 -15 -30 0 -28 -3 -30 -35 -30 -32 0 -35 2 -35 30 0 20 -5 30 -15 30
-12 0 -15 -16 -15 -80z"/>
<path d="M830 460 l0 -80 55 0 c42 0 55 3 55 15 0 11 -11 15 -40 15 -33 0 -40
3 -40 20 0 16 7 20 35 20 24 0 35 5 35 15 0 11 -11 15 -36 15 -28 0 -35 3 -32
18 2 12 13 17 37 17 19 0 36 6 38 13 3 9 -11 12 -51 12 l-56 0 0 -80z"/>
<path d="M986 518 c-23 -32 -20 -94 4 -118 30 -30 83 -27 109 6 27 34 27 88 1
114 -29 29 -94 27 -114 -2z m92 -10 c28 -28 5 -108 -32 -108 -42 0 -66 69 -36
104 15 19 51 21 68 4z"/>
<path d="M1952 463 l3 -78 33 -3 c36 -4 45 15 10 20 -19 2 -24 10 -26 41 -3
34 -1 37 22 37 14 0 26 5 26 10 0 6 -11 10 -25 10 -18 0 -25 5 -25 20 0 11 -5
20 -10 20 -7 0 -10 -29 -8 -77z"/>
<path d="M1159 495 c-5 -40 1 -110 10 -113 7 -2 11 14 11 47 0 44 3 51 19 51
11 0 23 5 26 10 4 6 -8 10 -29 10 -20 0 -36 -2 -37 -5z"/>
<path d="M1253 474 c-15 -24 -15 -29 -2 -53 9 -16 25 -27 42 -29 38 -5 29 -26
-11 -30 -43 -4 -41 -22 2 -22 52 0 66 21 66 96 l0 64 -40 0 c-32 0 -43 -5 -57
-26z m67 -30 c0 -31 -3 -35 -22 -32 -39 5 -37 68 2 68 16 0 20 -6 20 -36z"/>
<path d="M1390 491 c0 -5 12 -11 27 -13 39 -4 42 -28 4 -28 -35 0 -51 -23 -34
-49 7 -10 24 -16 49 -16 36 0 39 2 42 31 2 16 -2 42 -7 57 -9 22 -17 27 -46
27 -19 0 -35 -4 -35 -9z m58 -74 c2 -11 -3 -17 -16 -17 -26 0 -34 11 -20 27
14 17 32 12 36 -10z"/>
<path d="M1510 440 c0 -47 3 -60 15 -60 11 0 15 12 15 50 0 42 3 50 19 50 22
0 31 -19 31 -66 0 -19 5 -34 10 -34 11 0 14 78 4 104 -4 11 -19 16 -50 16
l-44 0 0 -60z"/>
<path d="M1650 440 c0 -47 3 -60 15 -60 12 0 15 13 15 60 0 47 -3 60 -15 60
-12 0 -15 -13 -15 -60z"/>
<path d="M1717 493 c-16 -15 -5 -44 23 -58 34 -18 31 -35 -6 -35 -13 0 -24 -5
-24 -11 0 -6 16 -9 38 -7 31 3 37 7 40 28 2 19 -5 30 -30 44 -33 20 -33 20 -8
24 42 6 48 22 9 22 -20 0 -39 -3 -42 -7z"/>
<path d="M1830 491 c0 -5 11 -11 25 -13 34 -4 37 -22 3 -26 -67 -8 -56 -72 12
-72 l40 0 0 44 c0 65 -7 76 -46 76 -19 0 -34 -4 -34 -9z m58 -69 c5 -17 -27
-27 -41 -13 -9 9 -8 14 3 21 18 11 32 8 38 -8z"/>
<path d="M2050 440 c0 -33 4 -60 10 -60 6 0 10 27 10 60 0 33 -4 60 -10 60 -6
0 -10 -27 -10 -60z"/>
<path d="M2115 476 c-29 -44 1 -96 54 -96 23 0 51 35 51 66 0 51 -77 73 -105
30z m73 -34 c4 -38 -20 -54 -45 -29 -23 23 -9 69 20 65 17 -2 23 -11 25 -36z"/>
<path d="M2250 440 c0 -47 3 -60 15 -60 11 0 15 12 15 50 0 43 3 50 20 50 14
0 21 -9 25 -33 4 -18 5 -39 3 -46 -2 -7 3 -16 10 -18 16 -6 17 88 0 105 -7 7
-29 12 -50 12 l-38 0 0 -60z"/>
<path d="M1517 323 c-4 -3 -7 -22 -7 -41 0 -42 9 -38 12 4 1 16 7 32 13 36 7
5 7 8 -1 8 -6 0 -14 -3 -17 -7z"/>
<path d="M188 313 c6 -2 13 -19 13 -36 2 -28 2 -29 6 -7 3 14 10 31 15 38 8 9
4 12 -18 11 -16 0 -23 -3 -16 -6z"/>
<path d="M251 283 c1 -23 3 -29 6 -15 2 12 9 22 14 22 5 0 10 -10 10 -22 1
-19 2 -20 6 -5 3 11 -4 27 -16 38 l-21 20 1 -38z"/>
<path d="M397 313 c-10 -18 -1 -68 13 -70 28 -5 40 11 31 42 -7 29 -34 45 -44
28z m33 -13 c0 -5 -7 -10 -16 -10 -8 0 -12 5 -9 10 3 6 10 10 16 10 5 0 9 -4
9 -10z m5 -29 c7 -12 -12 -24 -25 -16 -11 7 -4 25 10 25 5 0 11 -4 15 -9z"/>
<path d="M652 285 c0 -22 3 -30 5 -17 5 27 23 29 23 2 0 -11 5 -20 10 -20 11
0 13 11 4 34 -3 9 -12 16 -19 16 -7 0 -16 6 -18 13 -3 6 -5 -6 -5 -28z"/>
<path d="M1340 286 c0 -19 3 -37 8 -40 4 -2 6 13 4 35 -5 48 -12 51 -12 5z"/>
<path d="M1394 308 c-4 -7 2 -18 14 -26 27 -17 28 -29 5 -35 -16 -4 -16 -5 -1
-6 26 -2 32 18 12 40 -16 17 -16 22 -4 29 13 8 12 10 -2 10 -9 0 -20 -5 -24
-12z"/>
<path d="M1740 305 c-26 -31 13 -82 44 -56 19 16 21 42 4 59 -16 16 -33 15
-48 -3z m45 -25 c0 -16 -6 -26 -18 -28 -19 -4 -32 20 -23 44 9 25 41 13 41
-16z"/>
<path d="M532 278 c2 -17 9 -33 16 -36 11 -3 11 -1 0 17 -11 18 -11 23 0 30
11 7 10 9 -3 15 -13 5 -16 0 -13 -26z"/>
<path d="M742 280 c0 -19 2 -27 5 -17 2 9 2 25 0 35 -3 9 -5 1 -5 -18z"/>
<path d="M830 282 c0 -17 3 -33 8 -35 9 -6 8 50 -1 60 -4 3 -7 -8 -7 -25z"/>
<path d="M1092 279 c2 -18 9 -34 18 -36 12 -4 13 -3 1 5 -8 6 -12 19 -8 31 3
12 1 24 -5 27 -5 4 -8 -7 -6 -27z"/>
<path d="M1612 279 c2 -18 9 -34 18 -36 12 -4 13 -3 1 5 -8 6 -12 19 -8 31 3
12 1 24 -5 27 -5 4 -8 -7 -6 -27z"/>
<path d="M2172 279 c2 -18 9 -34 18 -36 12 -4 13 -3 1 5 -8 6 -12 19 -8 31 3
12 1 24 -5 27 -5 4 -8 -7 -6 -27z"/>
<path d="M314 286 c-8 -21 2 -46 18 -45 10 0 10 2 1 6 -7 2 -13 13 -13 24 0
20 15 26 23 9 3 -6 4 -5 3 2 -4 19 -25 21 -32 4z"/>
<path d="M464 285 c-3 -8 -4 -20 -1 -27 3 -7 6 -3 6 9 1 12 7 24 14 26 9 4 9
6 -1 6 -7 1 -15 -6 -18 -14z"/>
<path d="M604 289 c-3 -6 0 -15 7 -20 12 -8 12 -11 -1 -19 -13 -8 -13 -10 2
-10 24 0 30 16 12 30 -12 11 -12 15 -2 21 9 6 9 9 1 9 -6 0 -15 -5 -19 -11z"/>
<path d="M765 289 c-5 -8 -1 -9 13 -5 16 5 22 2 25 -16 5 -21 5 -21 4 2 -2 26
-30 39 -42 19z"/>
<path d="M874 286 c-9 -23 3 -46 23 -45 17 1 17 2 1 6 -10 2 -18 13 -18 24 0
20 15 26 23 9 3 -6 4 -5 3 2 -4 19 -25 21 -32 4z"/>
<path d="M931 273 c1 -22 2 -23 6 -8 3 11 10 23 17 27 7 5 5 8 -6 8 -13 0 -18
-7 -17 -27z"/>
<path d="M974 285 c-3 -8 -4 -20 -1 -27 3 -7 6 -3 6 10 1 12 6 22 11 22 6 0
15 -10 20 -22 5 -13 9 -18 9 -11 2 37 -33 60 -45 28z"/>
<path d="M1050 293 c14 -6 13 -43 -1 -43 -6 0 -8 7 -4 18 5 13 3 14 -6 5 -14
-14 -4 -33 17 -33 19 0 15 52 -4 56 -7 1 -8 0 -2 -3z"/>
<path d="M1167 293 c-11 -10 -8 -41 4 -49 16 -9 43 21 36 40 -7 16 -28 21 -40
9z m28 -23 c0 -7 -6 -15 -12 -17 -8 -3 -13 4 -13 17 0 13 5 20 13 18 6 -3 12
-11 12 -18z"/>
<path d="M1224 286 c-3 -8 -4 -21 -1 -28 3 -7 6 -3 6 10 1 12 6 22 11 22 6 0
15 -10 20 -22 10 -23 10 -23 7 2 -2 28 -34 40 -43 16z"/>
<path d="M1298 293 c15 -6 16 -43 1 -43 -5 0 -7 5 -4 10 3 6 1 10 -5 10 -18 0
-6 -25 13 -28 13 -3 17 4 17 27 0 23 -4 31 -17 30 -11 0 -13 -3 -5 -6z"/>
<path d="M1470 293 c14 -6 13 -43 -1 -43 -6 0 -8 7 -4 18 5 13 3 14 -6 5 -14
-14 -4 -33 17 -33 19 0 15 52 -4 56 -7 1 -8 0 -2 -3z"/>
<path d="M1554 286 c-9 -23 3 -46 23 -45 17 1 17 2 1 6 -10 2 -18 13 -18 24 0
20 15 26 23 9 3 -6 4 -5 3 2 -4 19 -25 21 -32 4z"/>
<path d="M1651 290 c-1 -9 4 -21 11 -28 7 -7 8 -16 2 -25 -5 -7 -1 -4 9 6 9
11 17 27 16 36 0 12 -2 11 -9 -4 -8 -19 -8 -19 -18 5 -6 14 -11 18 -11 10z"/>
<path d="M1818 275 c-3 -14 -2 -25 2 -25 4 0 10 11 12 25 3 14 2 25 -2 25 -4
0 -10 -11 -12 -25z"/>
<path d="M1860 285 c-12 -15 -6 -35 12 -35 7 0 7 4 -1 13 -11 14 -6 27 11 27
17 0 8 -58 -9 -64 -14 -4 -14 -4 2 -3 15 2 21 11 23 40 3 40 -14 51 -38 22z"/>
<path d="M1935 293 c14 -11 18 -43 6 -43 -5 0 -12 5 -14 10 -3 6 -4 5 -3 -2 2
-7 9 -13 17 -13 19 0 18 47 -1 52 -9 3 -11 1 -5 -4z"/>
<path d="M1980 291 c0 -6 6 -8 14 -5 9 4 16 -3 19 -18 5 -22 5 -22 4 2 -2 24
-37 44 -37 21z"/>
<path d="M2066 291 c-3 -5 1 -15 10 -22 14 -12 14 -14 -3 -20 -16 -7 -16 -8
-1 -8 24 -1 31 14 12 29 -12 11 -12 15 -2 21 9 6 9 9 1 9 -6 0 -14 -4 -17 -9z"/>
<path d="M2130 293 c14 -6 13 -43 -1 -43 -6 0 -8 7 -4 18 5 13 3 14 -6 5 -14
-14 -4 -33 17 -33 19 0 15 52 -4 56 -7 1 -8 0 -2 -3z"/>
<path d="M2247 293 c-11 -10 -8 -41 4 -49 16 -9 41 20 33 39 -6 17 -25 22 -37
10z m28 -23 c0 -7 -6 -15 -12 -17 -8 -3 -13 4 -13 17 0 13 5 20 13 18 6 -3 12
-11 12 -18z"/>
<path d="M2301 273 c2 -23 2 -24 6 -5 2 12 9 22 14 22 5 0 14 -10 19 -22 10
-23 10 -23 7 2 -1 17 -9 26 -24 28 -20 3 -23 -1 -22 -25z"/>
<path d="M502 270 c0 -14 2 -19 5 -12 2 6 2 18 0 25 -3 6 -5 1 -5 -13z"/>
<path d="M1132 270 c0 -14 2 -19 5 -12 2 6 2 18 0 25 -3 6 -5 1 -5 -13z"/>
<path d="M2042 270 c0 -14 2 -19 5 -12 2 6 2 18 0 25 -3 6 -5 1 -5 -13z"/>
<path d="M2212 270 c0 -14 2 -19 5 -12 2 6 2 18 0 25 -3 6 -5 1 -5 -13z"/>
<path d="M765 260 c-3 -5 -1 -10 4 -10 6 0 11 5 11 10 0 6 -2 10 -4 10 -3 0
-8 -4 -11 -10z"/>
<path d="M840 130 c0 -5 11 -10 25 -10 31 0 33 -18 3 -30 l-23 -9 23 -7 c29
-8 25 -39 -5 -39 -12 0 -26 -4 -30 -9 -4 -4 10 -6 32 -4 l40 3 0 45 c1 25 -3
51 -8 58 -11 14 -57 16 -57 2z"/>
<path d="M952 128 c-13 -13 -16 -66 -6 -92 7 -19 45 -21 62 -4 15 15 16 63 2
89 -12 21 -40 25 -58 7z m46 -44 c3 -34 -11 -60 -27 -50 -12 8 -15 68 -4 80
13 13 28 -1 31 -30z"/>
<path d="M1066 107 c-33 -43 -33 -57 -1 -57 16 0 25 -6 25 -15 0 -21 13 -19
28 5 7 12 8 20 2 20 -5 0 -10 18 -10 40 0 49 -11 50 -44 7z m24 -22 c0 -16 -6
-25 -15 -25 -18 0 -18 5 -5 31 14 26 20 24 20 -6z"/>
<path d="M1152 128 c-27 -27 1 -73 36 -61 25 9 11 -18 -15 -29 -23 -9 -25 -12
-10 -15 28 -7 57 25 57 62 0 48 -38 73 -68 43z m48 -28 c0 -21 -24 -28 -35
-10 -8 14 3 30 21 30 8 0 14 -9 14 -20z"/>
<path d="M1260 126 c0 -8 -3 -21 -6 -30 -4 -11 2 -17 21 -22 32 -8 30 -39 -3
-38 -12 0 -22 -3 -22 -8 0 -16 59 -8 69 10 11 21 4 35 -26 51 -30 16 -29 31 2
31 14 0 25 5 25 10 0 6 -13 10 -30 10 -19 0 -30 -5 -30 -14z"/>
<path d="M1363 128 c-6 -7 -10 -33 -9 -58 1 -45 1 -45 36 -45 35 0 35 0 35 45
1 50 -9 70 -35 70 -10 0 -22 -6 -27 -12z m45 -20 c-3 -7 -11 -13 -18 -13 -7 0
-15 6 -17 13 -3 7 4 12 17 12 13 0 20 -5 18 -12z m-3 -58 c0 -22 -29 -18 -33
3 -3 14 1 18 15 15 10 -2 18 -10 18 -18z"/>
<path d="M1526 125 c-35 -35 -11 -110 34 -103 32 4 46 48 28 85 -16 33 -40 40
-62 18z m42 -47 c-3 -45 -14 -54 -31 -27 -13 21 0 69 19 69 12 0 14 -10 12
-42z"/>
<path d="M1620 130 c0 -5 11 -10 25 -10 31 0 33 -18 3 -30 l-23 -9 23 -7 c29
-8 25 -39 -5 -39 -12 0 -26 -4 -30 -9 -4 -4 10 -6 32 -4 l40 3 0 45 c1 25 -3
51 -8 58 -11 14 -57 16 -57 2z"/>
<path d="M1450 70 c0 -5 9 -10 20 -10 11 0 20 5 20 10 0 6 -9 10 -20 10 -11 0
-20 -4 -20 -10z"/>
</g>
</svg>
