<?xml version="1.0" standalone="no"?>
<!DOCTYPE svg PUBLIC "-//W3C//DTD SVG 20010904//EN"
 "http://www.w3.org/TR/2001/REC-SVG-20010904/DTD/svg10.dtd">
<svg version="1.0" xmlns="http://www.w3.org/2000/svg"
 width="225.000000pt" height="225.000000pt" viewBox="0 0 225.000000 225.000000"
 preserveAspectRatio="xMidYMid meet">

<g transform="translate(0.000000,225.000000) scale(0.100000,-0.100000)"
fill="#000000" stroke="none">
<path d="M1101 2044 c-12 -15 -26 -45 -32 -68 -5 -22 -14 -57 -20 -76 -20 -79
-19 -80 76 -80 l85 0 0 28 c0 38 -37 168 -56 198 -21 30 -28 30 -53 -2z"/>
<path d="M1014 2018 c-42 -38 -90 -117 -109 -176 -6 -22 -5 -23 52 -20 l58 3
6 47 c9 59 38 159 51 176 25 30 -16 9 -58 -30z"/>
<path d="M952 2030 c-49 -22 -160 -129 -186 -178 l-17 -32 61 0 c56 0 61 2 70
26 19 48 63 133 79 151 25 29 44 53 40 53 -2 0 -23 -9 -47 -20z"/>
<path d="M1199 1997 c10 -29 22 -73 26 -98 12 -79 12 -79 65 -79 l49 0 -14 39
c-28 79 -82 158 -126 181 -17 10 -17 8 0 -43z"/>
<path d="M1259 2021 c6 -11 16 -23 22 -27 13 -8 79 -143 79 -161 0 -9 17 -13
55 -13 32 0 55 4 55 11 0 38 -110 153 -180 189 -41 21 -41 21 -31 1z"/>
<path d="M1413 1950 c33 -35 66 -78 75 -97 13 -28 21 -33 49 -33 32 0 33 1 22
22 -19 35 -112 120 -160 147 l-44 25 58 -64z"/>
<path d="M800 1966 c-51 -37 -130 -120 -130 -136 0 -5 11 -10 24 -10 18 0 32
13 56 50 17 27 49 67 71 90 47 49 40 51 -21 6z"/>
<path d="M616 1735 c-14 -35 -28 -84 -31 -107 -4 -24 -8 -53 -11 -65 -4 -21
-1 -23 41 -23 l45 0 1 48 c0 43 25 151 43 195 7 14 3 17 -27 17 -34 0 -36 -2
-61 -65z"/>
<path d="M731 1783 c-15 -30 -40 -125 -47 -185 l-6 -58 75 0 75 0 7 68 c3 37
12 95 19 130 l13 62 -63 0 c-50 0 -65 -4 -73 -17z"/>
<path d="M880 1748 c-6 -29 -14 -88 -17 -130 l-6 -78 69 0 69 0 3 93 c1 50 5
109 8 130 l6 37 -60 0 -60 0 -12 -52z"/>
<path d="M1027 1718 c-4 -46 -7 -104 -7 -130 l0 -48 105 0 105 0 0 69 c0 37
-3 96 -6 130 l-7 61 -92 0 -92 0 -6 -82z"/>
<path d="M1244 1778 c3 -13 8 -71 11 -130 l7 -108 60 0 61 0 -6 78 c-3 42 -11
101 -17 130 l-12 52 -54 0 c-51 0 -54 -1 -50 -22z"/>
<path d="M1385 1738 c7 -35 16 -93 20 -130 l7 -68 70 0 70 0 -6 28 c-2 15 -8
49 -11 77 -4 27 -16 73 -27 102 l-19 53 -58 0 -59 0 13 -62z"/>
<path d="M1526 1773 c4 -16 13 -45 20 -66 8 -21 17 -67 20 -103 l7 -64 43 0
c41 0 44 2 44 26 0 36 -28 140 -51 192 -18 38 -23 42 -54 42 -34 0 -35 -1 -29
-27z"/>
<path d="M577 1513 c-11 -18 15 -137 43 -199 28 -63 31 -65 62 -62 18 2 32 8
31 13 -2 6 -12 35 -23 66 -10 31 -23 85 -27 120 l-8 64 -37 3 c-20 2 -38 -1
-41 -5z"/>
<path d="M685 1511 c-9 -16 14 -140 38 -200 l22 -56 49 -3 c74 -5 75 -4 60 70
-7 35 -16 93 -19 131 l-7 67 -68 0 c-38 0 -71 -4 -75 -9z"/>
<path d="M863 1438 c4 -46 12 -105 19 -133 l13 -50 57 -3 56 -3 -5 123 c-2 68
-6 129 -8 136 -3 8 -26 12 -71 12 l-67 0 6 -82z"/>
<path d="M1024 1393 c4 -70 9 -130 12 -135 7 -11 172 -10 179 1 3 5 8 66 12
135 l6 126 -108 0 -108 0 7 -127z"/>
<path d="M1256 1423 c-4 -54 -9 -115 -12 -136 l-6 -38 54 3 53 3 13 50 c7 28
15 87 19 133 l6 82 -60 0 -61 0 -6 -97z"/>
<path d="M1405 1458 c-6 -63 -22 -157 -32 -191 -4 -16 1 -18 52 -15 l57 3 20
50 c22 54 50 194 42 207 -3 4 -34 8 -69 8 l-63 0 -7 -62z"/>
<path d="M1566 1466 c-5 -45 -32 -148 -53 -202 -4 -11 5 -14 35 -14 38 0 40 1
65 58 26 58 47 143 47 187 0 23 -4 25 -44 25 l-43 0 -7 -54z"/>
<path d="M691 1189 c18 -23 55 -59 83 -81 53 -42 145 -93 153 -84 3 2 -8 11
-24 19 -36 20 -107 90 -145 145 -25 36 -34 42 -64 42 l-36 0 33 -41z"/>
<path d="M769 1212 c29 -55 172 -182 204 -182 4 0 -8 24 -27 53 -18 28 -42 73
-52 99 l-19 48 -58 0 c-53 0 -57 -2 -48 -18z"/>
<path d="M910 1205 c32 -83 82 -156 129 -187 39 -27 42 -22 20 29 -11 25 -25
77 -31 115 l-12 68 -58 0 c-57 0 -57 0 -48 -25z"/>
<path d="M1044 1193 c14 -74 38 -149 56 -173 16 -20 22 -23 37 -14 21 13 58
110 68 177 l7 47 -87 0 -87 0 6 -37z"/>
<path d="M1235 1218 c-2 -7 -9 -39 -14 -71 -6 -32 -19 -78 -30 -103 -18 -39
-18 -43 -3 -35 16 9 65 59 90 92 6 8 23 41 37 72 l25 57 -50 0 c-32 0 -52 -5
-55 -12z"/>
<path d="M1345 1183 c-21 -54 -40 -88 -69 -120 -11 -13 -15 -23 -9 -23 21 0
104 64 140 108 73 90 72 82 11 82 l-55 0 -18 -47z"/>
<path d="M1483 1207 c-18 -38 -113 -136 -159 -163 -52 -31 -56 -37 -13 -22 79
28 192 111 240 179 l20 29 -39 0 c-31 0 -41 -5 -49 -23z"/>
<path d="M272 694 c-16 -11 -22 -25 -22 -54 0 -46 27 -71 75 -69 30 2 30 2 -5
8 -47 8 -70 52 -48 90 11 20 22 26 50 26 20 0 34 3 31 8 -8 13 -58 8 -81 -9z"/>
<path d="M450 703 c14 -3 31 -10 38 -15 13 -11 17 -78 5 -94 -5 -5 0 -1 10 9
37 41 5 108 -50 106 -28 -2 -28 -2 -3 -6z"/>
<path d="M960 703 c14 -3 31 -10 38 -15 13 -11 17 -78 5 -94 -5 -5 0 -1 10 9
37 40 3 109 -52 106 l-26 -2 25 -4z"/>
<path d="M1450 706 c0 -2 9 -6 20 -9 11 -3 18 -1 14 4 -5 9 -34 13 -34 5z"/>
<path d="M397 682 c-38 -42 -5 -113 51 -111 26 2 26 2 2 6 -14 2 -31 12 -37
21 -16 20 -17 74 -1 90 7 7 10 12 7 12 -3 0 -13 -8 -22 -18z"/>
<path d="M573 640 c17 -33 35 -60 38 -60 6 0 39 66 39 78 -1 4 -9 -9 -20 -28
l-19 -35 -22 53 c-12 28 -28 52 -35 52 -9 0 -3 -19 19 -60z"/>
<path d="M656 685 c-3 -8 -1 -15 4 -15 5 0 11 -21 13 -47 3 -43 4 -42 5 15 2
58 -9 81 -22 47z"/>
<path d="M753 640 c17 -33 35 -60 38 -60 6 0 39 66 39 78 -1 4 -9 -9 -19 -28
l-19 -34 -22 52 c-12 29 -29 52 -36 52 -9 0 -3 -19 19 -60z"/>
<path d="M836 685 c-3 -8 -1 -15 4 -15 5 0 11 -21 13 -47 3 -43 4 -42 5 15 2
58 -9 81 -22 47z"/>
<path d="M907 682 c-38 -42 -5 -113 51 -111 26 2 26 2 2 6 -14 2 -31 12 -37
21 -16 20 -17 74 -1 90 7 7 10 12 7 12 -3 0 -13 -8 -22 -18z"/>
<path d="M1102 636 c29 -36 56 -65 61 -65 4 -1 6 29 5 67 l-1 67 -6 -55 -6
-55 -40 53 c-21 28 -45 52 -53 52 -7 0 11 -29 40 -64z"/>
<path d="M1210 692 c0 -16 21 -105 27 -112 5 -6 23 21 23 35 0 6 -4 4 -9 -4
-6 -10 -11 -2 -15 25 -7 41 -26 81 -26 56z"/>
<path d="M1277 683 c-2 -10 -8 -27 -12 -38 -4 -13 -1 -11 9 5 16 27 14 30 40
-45 11 -33 15 -37 21 -21 5 10 3 21 -2 25 -6 3 -16 25 -23 49 -14 45 -25 53
-33 25z"/>
<path d="M1405 640 c0 -33 3 -60 8 -60 4 0 7 27 7 60 0 33 -3 60 -7 60 -5 0
-8 -27 -8 -60z"/>
<path d="M1568 695 c-6 -7 44 -115 54 -115 4 0 -4 26 -17 57 -28 63 -30 65
-37 58z"/>
<path d="M1668 635 c-1 -35 0 -61 4 -57 9 9 15 122 6 122 -3 0 -8 -29 -10 -65z"/>
<path d="M1799 638 c5 -67 8 -63 13 15 2 27 -1 47 -7 47 -6 0 -8 -24 -6 -62z"/>
<path d="M1890 640 c0 -35 3 -61 6 -58 7 8 7 108 0 115 -3 4 -6 -22 -6 -57z"/>
<path d="M1980 640 c0 -33 4 -60 10 -60 6 0 10 27 10 60 0 33 -4 60 -10 60 -6
0 -10 -27 -10 -60z"/>
<path d="M1536 634 c-4 -9 -4 -19 -1 -22 2 -3 7 3 11 12 4 9 4 19 1 22 -2 3
-7 -3 -11 -12z"/>
<path d="M1480 591 c0 -5 -8 -12 -17 -14 -14 -4 -12 -5 5 -6 13 -1 22 5 22 14
0 8 -2 15 -5 15 -3 0 -5 -4 -5 -9z"/>
<path d="M1728 573 c7 -3 16 -2 19 1 4 3 -2 6 -13 5 -11 0 -14 -3 -6 -6z"/>
<path d="M673 503 c247 -2 647 -2 890 0 243 1 42 2 -448 2 -490 0 -688 -1
-442 -2z"/>
<path d="M262 438 c-7 -7 -12 -22 -12 -34 0 -17 8 -24 31 -29 37 -8 49 -33 24
-51 -10 -8 -14 -14 -9 -14 17 0 34 23 34 46 0 15 -9 24 -32 30 -23 7 -33 16
-33 29 0 16 6 20 34 18 24 -1 30 1 20 8 -20 12 -43 11 -57 -3z"/>
<path d="M395 425 c-14 -13 -25 -33 -25 -45 0 -34 44 -70 82 -68 l33 1 -32 4
c-35 5 -63 35 -63 68 0 31 14 46 51 55 32 8 33 8 6 9 -17 1 -37 -8 -52 -24z"/>
<path d="M548 378 c5 -93 27 -93 27 0 0 53 -3 68 -15 68 -12 0 -14 -13 -12
-68z"/>
<path d="M645 378 c0 -93 22 -93 27 0 2 55 0 68 -12 68 -12 0 -15 -14 -15 -68z"/>
<path d="M792 443 c31 -5 44 -18 53 -55 5 -21 1 -33 -19 -52 -14 -15 -22 -26
-17 -26 17 0 51 48 51 73 0 36 -33 67 -67 66 l-28 -2 27 -4z"/>
<path d="M1282 444 c26 -8 29 -33 7 -55 l-21 -21 24 -26 c12 -15 24 -29 26
-31 1 -2 5 -2 8 2 4 3 -3 18 -15 33 -20 26 -20 28 -4 46 20 23 8 52 -23 55
-15 1 -15 1 -2 -3z"/>
<path d="M1386 431 c-24 -26 -17 -42 25 -56 25 -9 34 -18 33 -33 0 -12 3 -19
8 -16 4 3 8 16 8 29 0 20 -7 25 -36 31 -28 5 -35 10 -32 28 2 15 10 21 30 21
14 -1 24 3 22 7 -9 15 -41 8 -58 -11z"/>
<path d="M1610 435 c5 -6 8 -37 6 -68 -2 -37 1 -57 8 -57 7 0 11 25 11 68 0
57 -3 68 -17 68 -11 0 -14 -4 -8 -11z"/>
<path d="M1700 436 c7 -10 11 -37 8 -71 -2 -32 1 -55 7 -55 6 0 9 26 7 64 -3
47 -8 66 -19 70 -13 5 -14 4 -3 -8z"/>
<path d="M1790 436 c7 -10 11 -37 8 -71 -2 -32 1 -55 7 -55 6 0 9 26 7 64 -3
47 -8 66 -19 70 -13 5 -14 4 -3 -8z"/>
<path d="M1836 440 c31 -12 38 -28 22 -48 -12 -15 -11 -16 5 -3 9 7 17 19 17
27 0 14 -31 34 -52 33 -7 0 -3 -4 8 -9z"/>
<path d="M1965 443 c11 -3 24 -10 28 -17 6 -7 7 -6 4 4 -2 8 -14 16 -28 17
-19 1 -20 1 -4 -4z"/>
<path d="M736 418 c-9 -12 -16 -33 -16 -45 0 -28 33 -63 58 -62 13 0 14 2 2 6
-37 13 -55 84 -28 111 7 7 9 12 6 12 -4 0 -14 -10 -22 -22z"/>
<path d="M920 377 l-5 -67 45 2 c43 1 43 2 8 5 l-37 4 -3 62 -3 62 -5 -68z"/>
<path d="M1109 435 c-4 -3 4 -29 17 -56 14 -28 22 -54 19 -60 -4 -5 1 -9 9 -9
9 0 16 3 15 8 -2 20 -55 123 -60 117z"/>
<path d="M1239 377 c-2 -41 0 -67 6 -67 6 0 9 20 7 48 -5 84 -8 88 -13 19z"/>
<path d="M1518 376 c-2 -40 1 -66 7 -66 9 0 10 118 1 127 -2 3 -6 -25 -8 -61z"/>
<path d="M1924 425 c-10 -25 4 -45 36 -51 29 -6 34 -13 31 -44 -1 -11 2 -10
10 3 16 26 5 45 -33 55 -25 6 -33 14 -32 30 1 26 -4 28 -12 7z"/>
<path d="M1056 325 c-3 -8 -1 -15 4 -15 6 0 10 7 10 15 0 8 -2 15 -4 15 -2 0
-6 -7 -10 -15z"/>
<path d="M1920 327 c0 -10 8 -17 18 -17 9 0 13 4 7 8 -5 4 -13 11 -17 16 -5 5
-8 2 -8 -7z"/>
<path d="M250 320 c0 -6 7 -10 15 -10 8 0 15 2 15 4 0 2 -7 6 -15 10 -8 3 -15
1 -15 -4z"/>
<path d="M1388 313 c7 -3 16 -2 19 1 4 3 -2 6 -13 5 -11 0 -14 -3 -6 -6z"/>
</g>
</svg>
