<?xml version="1.0" standalone="no"?>
<!DOCTYPE svg PUBLIC "-//W3C//DTD SVG 20010904//EN"
 "http://www.w3.org/TR/2001/REC-SVG-20010904/DTD/svg10.dtd">
<svg version="1.0" xmlns="http://www.w3.org/2000/svg"
 width="225.000000pt" height="225.000000pt" viewBox="0 0 225.000000 225.000000"
 preserveAspectRatio="xMidYMid meet">

<g transform="translate(0.000000,225.000000) scale(0.100000,-0.100000)"
fill="#000000" stroke="none">
<path d="M0 1125 l0 -1125 1125 0 1125 0 0 1125 0 1125 -1125 0 -1125 0 0
-1125z m550 335 l0 -30 -185 0 -185 0 0 30 0 30 185 0 185 0 0 -30z m526 11
c84 -38 69 -41 -210 -41 l-266 0 0 30 0 30 218 0 c190 0 222 -3 258 -19z m454
12 c0 -5 3 -18 6 -30 l6 -23 -151 0 -151 0 0 30 0 30 145 0 c80 0 145 -3 145
-7z m550 -23 l0 -30 -150 0 c-157 0 -160 1 -144 44 5 14 28 16 150 16 l144 0
0 -30z m-1530 -100 l0 -30 -185 0 -185 0 0 30 0 30 185 0 185 0 0 -30z m630
11 c5 -11 10 -24 10 -30 0 -8 -93 -11 -295 -11 l-295 0 0 30 0 30 285 0 c271
0 285 -1 295 -19z m390 -7 c6 -14 10 -27 10 -30 0 -2 -76 -4 -170 -4 l-170 0
0 30 0 30 160 0 160 0 10 -26z m510 -4 l0 -30 -170 0 c-175 0 -181 1 -160 41
10 18 23 19 170 19 l160 0 0 -30z m-1630 -105 c0 -25 -1 -25 -85 -25 -84 0
-85 0 -85 25 0 25 1 25 85 25 84 0 85 0 85 -25z m420 0 c0 -25 -1 -25 -85 -25
-84 0 -85 0 -85 25 0 25 1 25 85 25 84 0 85 0 85 -25z m326 9 c-3 -9 -6 -20
-6 -25 0 -5 -38 -9 -85 -9 -84 0 -85 0 -85 25 0 25 1 25 91 25 79 0 90 -2 85
-16z m415 -11 l8 -23 -139 0 -140 0 0 25 0 26 131 -3 c126 -3 132 -4 140 -25z
m369 2 l0 -25 -141 0 c-77 0 -138 3 -136 8 2 4 7 15 10 25 6 15 22 17 137 17
l130 0 0 -25z m-1530 -100 c0 -25 -1 -25 -85 -25 -84 0 -85 0 -85 25 0 25 1
25 85 25 84 0 85 0 85 -25z m698 3 c-15 -22 -20 -23 -226 -26 l-210 -2 -4 25
-5 25 230 0 229 0 -14 -22z m496 6 c9 -24 7 -46 -4 -39 -5 3 -75 6 -155 6
l-145 -1 0 25 0 25 149 0 c127 0 150 -2 155 -16z m336 -9 l0 -25 -155 1 c-85
0 -155 4 -155 9 0 38 9 40 161 40 l149 0 0 -25z m-1535 -105 c0 -25 -1 -25
-80 -25 l-80 0 -3 28 -3 28 83 -3 c81 -3 83 -4 83 -28z m695 8 c11 -12 20 -26
20 -30 0 -5 -102 -7 -227 -6 l-228 3 -3 28 -3 27 210 0 c203 0 211 -1 231 -22z
m360 -8 l0 -31 -77 3 c-77 3 -78 3 -81 31 l-3 27 80 0 81 0 0 -30z m290 26 c0
-3 -4 -16 -10 -30 -9 -26 -11 -26 -120 -26 -109 0 -111 0 -120 26 -6 14 -10
27 -10 30 0 2 59 4 130 4 72 0 130 -2 130 -4z m188 -23 c-3 -28 -4 -28 -80
-31 l-78 -3 0 31 0 30 81 0 80 0 -3 -27z m-1533 -103 c0 -24 -2 -25 -78 -28
-81 -3 -98 6 -83 43 5 13 21 15 83 13 76 -3 78 -4 78 -28z m425 0 l0 -31 -82
3 c-82 3 -83 3 -86 31 l-3 27 85 0 86 0 0 -30z m324 14 c16 -42 10 -45 -81
-42 -84 3 -87 4 -86 26 0 12 1 24 2 27 1 3 37 5 80 5 63 0 80 -3 85 -16z m306
-14 l0 -30 -80 0 -80 0 0 30 0 30 80 0 80 0 0 -30z m249 0 c-11 -30 -11 -30
-90 -30 -43 0 -79 3 -79 8 0 4 -3 17 -6 30 -6 22 -5 22 89 22 l96 0 -10 -30z
m231 0 l0 -30 -80 0 -80 0 0 30 0 30 80 0 80 0 0 -30z m-1430 -100 l0 -30
-185 0 -185 0 0 30 0 30 185 0 185 0 0 -30z m640 19 c0 -6 -5 -19 -10 -30 -10
-18 -24 -19 -295 -19 l-285 0 0 30 0 30 295 0 c202 0 295 -3 295 -11z m310
-19 l0 -30 -130 0 -130 0 0 30 0 30 130 0 130 0 0 -30z m220 26 c0 -3 -4 -16
-10 -30 -8 -22 -16 -26 -50 -26 -34 0 -42 4 -50 26 -6 14 -10 27 -10 30 0 2
27 4 60 4 33 0 60 -2 60 -4z m360 -26 l0 -30 -130 0 -130 0 0 30 0 30 130 0
130 0 0 -30z m-1530 -100 l0 -30 -185 0 -185 0 0 23 c0 13 3 27 7 30 3 4 87 7
185 7 l178 0 0 -30z m580 21 c0 -5 -19 -19 -43 -30 -40 -19 -61 -21 -265 -21
l-222 0 0 30 0 30 265 0 c153 0 265 -4 265 -9z m370 -21 l0 -30 -130 0 -130 0
0 30 0 30 130 0 130 0 0 -30z m180 13 c0 -21 -17 -50 -24 -43 -2 3 -7 17 -11
33 -6 23 -4 27 14 27 13 0 21 -6 21 -17z m400 -13 l0 -30 -130 0 -130 0 0 30
0 30 130 0 130 0 0 -30z"/>
</g>
</svg>
