<?xml version="1.0" standalone="no"?>
<!DOCTYPE svg PUBLIC "-//W3C//DTD SVG 20010904//EN"
 "http://www.w3.org/TR/2001/REC-SVG-20010904/DTD/svg10.dtd">
<svg version="1.0" xmlns="http://www.w3.org/2000/svg"
 width="452.000000pt" height="389.000000pt" viewBox="0 0 452.000000 389.000000"
 preserveAspectRatio="xMidYMid meet">

<g transform="translate(0.000000,389.000000) scale(0.100000,-0.100000)"
fill="#000000" stroke="none">
<path d="M3160 1465 l0 -335 35 0 35 0 0 202 0 203 128 -128 127 -127 125 125
c69 69 128 125 132 125 5 0 8 -90 8 -200 l0 -200 70 0 70 0 0 335 0 335 -32 0
c-29 0 -52 -19 -193 -160 l-160 -160 -160 160 c-88 88 -165 160 -172 160 -10
0 -13 -72 -13 -335z"/>
<path d="M4040 1465 l0 -335 185 0 185 0 0 40 0 40 -110 0 -110 0 0 295 0 295
-75 0 -75 0 0 -335z"/>
<path d="M2352 678 l3 -333 183 -3 182 -2 0 40 0 40 -110 0 -110 0 0 295 0
295 -75 0 -75 0 2 -332z"/>
<path d="M3460 674 l0 -336 168 4 c146 3 171 6 200 23 64 39 72 64 72 236 0
172 -8 200 -72 239 -47 29 -169 29 -198 0 l-20 -20 0 95 0 95 -75 0 -75 0 0
-336z m267 92 c27 -24 28 -27 31 -141 2 -64 1 -128 -2 -141 -11 -44 -41 -64
-96 -64 l-50 0 0 164 0 165 26 20 c35 27 57 26 91 -3z"/>
<path d="M2955 850 c-29 -12 -61 -50 -74 -89 -16 -49 -15 -51 25 -51 30 0 37
4 45 29 12 35 46 51 109 51 69 0 101 -29 108 -98 l5 -52 -93 0 c-105 0 -148
-15 -183 -64 -30 -42 -31 -123 -1 -162 41 -55 68 -68 148 -68 65 -1 77 2 100
23 l26 24 0 -26 c0 -27 1 -27 70 -27 l70 0 0 208 c0 189 -2 210 -20 240 -37
60 -70 72 -200 71 -63 0 -124 -4 -135 -9z m210 -339 c-1 -44 -5 -57 -24 -72
-64 -52 -150 19 -110 92 14 27 45 39 94 36 l40 -2 0 -54z"/>
<path d="M4131 842 c-55 -27 -76 -64 -76 -132 0 -71 9 -82 122 -150 89 -54
109 -85 78 -120 -36 -40 -109 -22 -128 33 -4 12 -17 17 -42 17 -40 0 -45 -17
-21 -75 22 -51 65 -69 168 -70 72 0 91 3 114 21 51 38 69 71 69 129 0 64 -19
89 -110 142 -77 45 -105 71 -105 99 0 65 116 68 139 3 9 -25 15 -29 46 -29 36
0 36 1 30 33 -20 88 -62 117 -177 117 -50 0 -84 -6 -107 -18z"/>
</g>
</svg>
